<svg width="20" height="23" viewBox="0 0 20 23" fill="none" xmlns="http://www.w3.org/2000/svg">
<path d="M10.049 0.520996C4.99061 0.520996 0.876221 4.2748 0.876221 8.89251C0.876221 15.4526 9.18496 22.2245 9.53859 22.5088C9.68311 22.6258 9.86454 22.6843 10.046 22.6843C10.2274 22.6843 10.4088 22.6258 10.5533 22.5088C10.907 22.2245 19.2157 15.4498 19.2157 8.88973C19.2188 4.2748 15.1044 0.520996 10.049 0.520996ZM10.049 13.4517C7.23846 13.4517 4.95371 11.3811 4.95371 8.83399C4.95371 6.28686 7.23846 4.21628 10.049 4.21628C12.8596 4.21628 15.1444 6.28686 15.1444 8.83399C15.1444 11.3811 12.8565 13.4517 10.049 13.4517Z" fill="#13A6BA"/>
</svg>
